<?xml version="1.0" encoding="UTF-8" standalone="no"?>
<!-- Generator: Adobe Illustrator 26.5.0, SVG Export Plug-In . SVG Version: 6.00 Build 0)  -->

<svg
   version="1.1"
   id="Warstwa_1"
   x="0px"
   y="0px"
   viewBox="0 0 512 512"
   style="enable-background:new 0 0 512 512;"
   xml:space="preserve"
   sodipodi:docname="logo.svg"
   inkscape:version="1.2.1 (9c6d41e410, 2022-07-14)"
   xmlns:inkscape="http://www.inkscape.org/namespaces/inkscape"
   xmlns:sodipodi="http://sodipodi.sourceforge.net/DTD/sodipodi-0.dtd"
   xmlns="http://www.w3.org/2000/svg"
   xmlns:svg="http://www.w3.org/2000/svg"><defs
   id="defs66" /><sodipodi:namedview
   id="namedview64"
   pagecolor="#505050"
   bordercolor="#eeeeee"
   borderopacity="1"
   inkscape:showpageshadow="0"
   inkscape:pageopacity="0"
   inkscape:pagecheckerboard="0"
   inkscape:deskcolor="#505050"
   showgrid="false"
   inkscape:zoom="2.0058594"
   inkscape:cx="149.56183"
   inkscape:cy="256.49854"
   inkscape:window-width="1379"
   inkscape:window-height="1230"
   inkscape:window-x="26"
   inkscape:window-y="26"
   inkscape:window-maximized="0"
   inkscape:current-layer="Warstwa_1" />
<style
   type="text/css"
   id="style35">
	.st0{fill:#A93988;}
	.st1{fill:#838383;}
	.st2{fill:#FFFFFF;}
	.st3{fill:#E179C2;}
</style>
<rect
   x="-0.6"
   class="st0"
   width="512.6"
   height="513.7"
   id="rect37" />
<path
   class="st1"
   d="M 373.17259,142.09572 H 143.1274 c -6.05184,0 -11.00324,4.95143 -11.00324,11.00319 v 31.4377 h 252.05167 v -31.4377 c 0,-6.05176 -4.87285,-11.00319 -11.00324,-11.00319 z"
   id="path39"
   style="stroke-width:0.785972" />
<path
   class="st2"
   d="m 132.59573,183.27909 h 251.10852 c 0.23582,0 0.47158,0.23578 0.47158,0.47157 v 148.77886 c 0,6.28754 -5.10861,11.47475 -11.47481,11.47475 H 143.59897 c -6.28757,0 -11.47481,-5.10862 -11.47481,-11.47475 V 183.75066 c 0,-0.23579 0.23579,-0.47157 0.47157,-0.47157 z"
   id="path41"
   style="stroke-width:0.785972" />
<path
   class="st3"
   d="m 185.96129,216.44586 h -26.01471 c -1.49329,0 -2.75086,-1.25751 -2.75086,-2.75079 V 194.0465 c 0,-1.49329 1.25757,-2.75079 2.75086,-2.75079 h 26.01471 c 1.49321,0 2.7507,1.2575 2.7507,2.75079 v 19.64857 c 0,1.49328 -1.25749,2.75079 -2.7507,2.75079 z"
   id="path43"
   style="stroke-width:0.785972" />
<path
   class="st3"
   d="m 185.96129,244.66118 h -26.01471 c -1.49329,0 -2.75086,-1.25751 -2.75086,-2.7508 v -19.64855 c 0,-1.49329 1.25757,-2.7508 2.75086,-2.7508 h 26.01471 c 1.49321,0 2.7507,1.25751 2.7507,2.7508 v 19.64855 c 0,1.49329 -1.25749,2.7508 -2.7507,2.7508 z"
   id="path45"
   style="stroke-width:0.785972" />
<path
   class="st3"
   d="m 185.96129,304.62858 h -26.01471 c -1.49329,0 -2.75086,-1.25752 -2.75086,-2.7508 v -19.64856 c 0,-1.49329 1.25757,-2.7508 2.75086,-2.7508 h 26.01471 c 1.49321,0 2.7507,1.25751 2.7507,2.7508 v 19.64856 c 0,1.49328 -1.25749,2.7508 -2.7507,2.7508 z"
   id="path47"
   style="stroke-width:0.785972" />
<path
   class="st3"
   d="m 228.24492,304.62858 h -26.01474 c -1.49327,0 -2.75076,-1.25752 -2.75076,-2.7508 v -19.64856 c 0,-1.49329 1.25749,-2.7508 2.75076,-2.7508 h 26.01474 c 1.49329,0 2.75077,1.25751 2.75077,2.7508 v 19.64856 c 0,1.49328 -1.17889,2.7508 -2.75077,2.7508 z"
   id="path49"
   style="stroke-width:0.785972" />
<path
   class="st3"
   d="m 269.97842,271.619 h -26.01467 c -1.49329,0 -2.75094,-1.2575 -2.75094,-2.75079 v -19.64857 c 0,-1.49329 1.25765,-2.75079 2.75094,-2.75079 h 26.01467 c 1.49332,0 2.7508,1.2575 2.7508,2.75079 v 19.64857 c 0,1.49329 -1.25748,2.75079 -2.7508,2.75079 z"
   id="path51"
   style="stroke-width:0.785972" />
<path
   class="st3"
   d="m 313.3625,245.60431 h -26.01477 c -1.49329,0 -2.75078,-1.2575 -2.75078,-2.75079 v -19.64856 c 0,-1.49329 1.25749,-2.75079 2.75078,-2.75079 h 26.01477 c 1.49325,0 2.75079,1.2575 2.75079,2.75079 v 19.64856 c 0,1.49329 -1.25754,2.75079 -2.75079,2.75079 z"
   id="path53"
   style="stroke-width:0.785972" />
<path
   class="st3"
   d="M 355.88185,245.60431 H 329.8672 c -1.49329,0 -2.75078,-1.2575 -2.75078,-2.75079 v -19.64856 c 0,-1.49329 1.25749,-2.75079 2.75078,-2.75079 h 26.01465 c 1.49337,0 2.75092,1.2575 2.75092,2.75079 v 19.64856 c 0,1.49329 -1.17898,2.75079 -2.75092,2.75079 z"
   id="path55"
   style="stroke-width:0.785972" />
<path
   class="st3"
   d="M 355.88185,273.97683 H 329.8672 c -1.49329,0 -2.75078,-1.25751 -2.75078,-2.7508 v -19.64856 c 0,-1.49329 1.25749,-2.75079 2.75078,-2.75079 h 26.01465 c 1.49337,0 2.75092,1.2575 2.75092,2.75079 v 19.64856 c 0,1.57188 -1.17898,2.7508 -2.75092,2.7508 z"
   id="path57"
   style="stroke-width:0.785972" />
<path
   class="st3"
   d="M 355.88185,217.23179 H 329.8672 c -1.49329,0 -2.75078,-1.2575 -2.75078,-2.75078 v -19.64857 c 0,-1.49328 1.25749,-2.75079 2.75078,-2.75079 h 26.01465 c 1.49337,0 2.75092,1.25751 2.75092,2.75079 v 19.64857 c 0,1.49328 -1.17898,2.75078 -2.75092,2.75078 z"
   id="path59"
   style="stroke-width:0.785972" />
<path
   class="st3"
   d="m 228.24492,216.44586 h -26.01474 c -1.49327,0 -2.75076,-1.25751 -2.75076,-2.75079 V 194.0465 c 0,-1.49329 1.25749,-2.75079 2.75076,-2.75079 h 26.01474 c 1.49329,0 2.75077,1.2575 2.75077,2.75079 v 19.64857 c 0,1.49328 -1.17889,2.75079 -2.75077,2.75079 z"
   id="path61"
   style="stroke-width:0.785972" />
</svg>
